<svg xmlns="http://www.w3.org/2000/svg" xmlns:xlink="http://www.w3.org/1999/xlink" width="173" zoomAndPan="magnify" viewBox="0 0 129.75 30.000001" height="40" preserveAspectRatio="xMidYMid meet" version="1.0"><defs><g/><clipPath id="2fb3e973f6"><path d="M 1.972656 0 L 127.535156 0 L 127.535156 29.03125 L 1.972656 29.03125 Z M 1.972656 0 " clip-rule="nonzero"/></clipPath><clipPath id="d91bb0c500"><path d="M 14.730469 4.777344 L 48.117188 4.777344 L 48.117188 24.375 L 14.730469 24.375 Z M 14.730469 4.777344 " clip-rule="nonzero"/></clipPath></defs><g clip-path="url(#2fb3e973f6)"><path fill="#ffffff" d="M 1.972656 0 L 127.535156 0 L 127.535156 29.03125 L 1.972656 29.03125 Z M 1.972656 0 " fill-opacity="1" fill-rule="nonzero"/><path fill="#fffffe" d="M 1.972656 0 L 127.535156 0 L 127.535156 29.03125 L 1.972656 29.03125 Z M 1.972656 0 " fill-opacity="1" fill-rule="nonzero"/></g><g clip-path="url(#d91bb0c500)"><path fill="#000000" d="M 47.90625 16.847656 C 44.664062 15.042969 39.773438 12.3125 39.441406 12.101562 C 39.414062 12.082031 39.386719 12.066406 39.351562 12.054688 C 38.816406 11.84375 38.222656 11.78125 37.648438 11.863281 C 37.699219 11.527344 37.640625 11.175781 37.5 10.890625 C 37.238281 10.355469 36.757812 9.992188 36.371094 9.699219 L 30.269531 5.070312 C 30.238281 5.042969 30.199219 5.019531 30.15625 5.003906 C 29.863281 4.894531 29.863281 4.894531 27.355469 7.972656 C 26.113281 9.5 24.390625 11.628906 22.238281 14.304688 C 18.527344 18.910156 14.832031 23.523438 14.832031 23.523438 C 14.71875 23.660156 14.722656 23.859375 14.832031 24 C 14.875 24.046875 14.921875 24.082031 14.976562 24.105469 C 15.046875 24.171875 15.136719 24.214844 15.238281 24.214844 C 15.25 24.214844 15.265625 24.214844 15.277344 24.210938 C 15.371094 24.203125 15.460938 24.191406 15.554688 24.183594 C 17.742188 24.234375 19.941406 24.261719 22.140625 24.261719 C 27.480469 24.261719 32.835938 24.109375 38.136719 23.804688 C 38.292969 23.796875 38.425781 23.691406 38.472656 23.542969 C 38.84375 22.359375 38.925781 21.1875 38.988281 20.050781 C 42.007812 19.292969 44.960938 18.457031 47.835938 17.539062 C 47.980469 17.496094 48.082031 17.367188 48.097656 17.214844 C 48.113281 17.066406 48.039062 16.921875 47.90625 16.847656 Z M 27.113281 11.25 L 29.496094 7.972656 C 29.617188 7.804688 29.855469 7.765625 30.023438 7.890625 C 30.191406 8.011719 30.226562 8.25 30.105469 8.417969 L 27.722656 11.695312 C 27.648438 11.796875 27.53125 11.851562 27.417969 11.851562 C 27.339844 11.851562 27.261719 11.828125 27.195312 11.777344 C 27.027344 11.65625 26.988281 11.417969 27.113281 11.25 Z M 16.882812 23.269531 L 36.816406 12.882812 C 36.871094 12.882812 36.929688 12.871094 36.980469 12.84375 C 37.628906 12.53125 38.414062 12.5 39.082031 12.761719 L 39.082031 12.757812 C 39.277344 12.886719 39.648438 13.097656 40.363281 13.5 C 41.164062 13.949219 42.226562 14.542969 43.289062 15.140625 C 44.628906 15.886719 45.964844 16.632812 46.769531 17.082031 C 37.496094 19.972656 27.453125 22.050781 16.882812 23.269531 Z M 16.882812 23.269531 " fill-opacity="1" fill-rule="nonzero"/></g><g fill="#000000" fill-opacity="1"><g transform="translate(59.727461, 17.056453)"><g><path d="M 5.875 -5.359375 C 5.894531 -5.253906 5.878906 -5.160156 5.828125 -5.078125 C 5.773438 -5.003906 5.707031 -4.941406 5.625 -4.890625 C 5.539062 -4.835938 5.445312 -4.800781 5.34375 -4.78125 C 5.238281 -4.757812 5.132812 -4.753906 5.03125 -4.765625 C 4.925781 -4.785156 4.835938 -4.828125 4.765625 -4.890625 C 4.691406 -4.953125 4.640625 -5.035156 4.609375 -5.140625 C 4.554688 -5.398438 4.398438 -5.601562 4.140625 -5.75 C 3.890625 -5.894531 3.578125 -5.96875 3.203125 -5.96875 C 2.890625 -5.96875 2.640625 -5.9375 2.453125 -5.875 C 2.265625 -5.8125 2.125 -5.726562 2.03125 -5.625 C 1.894531 -5.488281 1.828125 -5.347656 1.828125 -5.203125 C 1.835938 -5.054688 1.960938 -4.925781 2.203125 -4.8125 C 2.296875 -4.757812 2.414062 -4.71875 2.5625 -4.6875 C 2.707031 -4.65625 2.867188 -4.617188 3.046875 -4.578125 C 3.222656 -4.546875 3.40625 -4.515625 3.59375 -4.484375 C 3.789062 -4.453125 3.988281 -4.414062 4.1875 -4.375 C 5 -4.195312 5.554688 -3.875 5.859375 -3.40625 C 5.972656 -3.238281 6.054688 -3.035156 6.109375 -2.796875 C 6.171875 -2.566406 6.195312 -2.328125 6.1875 -2.078125 C 6.1875 -1.828125 6.148438 -1.578125 6.078125 -1.328125 C 6.003906 -1.085938 5.890625 -0.875 5.734375 -0.6875 C 5.515625 -0.414062 5.195312 -0.195312 4.78125 -0.03125 C 4.363281 0.125 3.863281 0.203125 3.28125 0.203125 C 2.78125 0.203125 2.34375 0.140625 1.96875 0.015625 C 1.59375 -0.109375 1.28125 -0.289062 1.03125 -0.53125 C 0.789062 -0.769531 0.609375 -1.054688 0.484375 -1.390625 C 0.359375 -1.722656 0.296875 -2.097656 0.296875 -2.515625 C 0.296875 -2.710938 0.351562 -2.863281 0.46875 -2.96875 C 0.582031 -3.070312 0.707031 -3.128906 0.84375 -3.140625 C 0.988281 -3.160156 1.125 -3.132812 1.25 -3.0625 C 1.382812 -2.988281 1.46875 -2.875 1.5 -2.71875 C 1.570312 -2.320312 1.765625 -2.023438 2.078125 -1.828125 C 2.390625 -1.628906 2.789062 -1.53125 3.28125 -1.53125 C 3.632812 -1.53125 3.910156 -1.566406 4.109375 -1.640625 C 4.304688 -1.710938 4.460938 -1.8125 4.578125 -1.9375 C 4.679688 -2.039062 4.734375 -2.171875 4.734375 -2.328125 C 4.742188 -2.484375 4.710938 -2.613281 4.640625 -2.71875 C 4.554688 -2.820312 4.460938 -2.914062 4.359375 -3 C 4.253906 -3.082031 4.082031 -3.148438 3.84375 -3.203125 C 3.675781 -3.234375 3.5 -3.265625 3.3125 -3.296875 C 3.125 -3.328125 2.9375 -3.359375 2.75 -3.390625 C 2.5625 -3.429688 2.367188 -3.472656 2.171875 -3.515625 C 1.984375 -3.566406 1.804688 -3.625 1.640625 -3.6875 C 1.316406 -3.8125 1.066406 -3.988281 0.890625 -4.21875 C 0.722656 -4.457031 0.625 -4.710938 0.59375 -4.984375 C 0.5625 -5.253906 0.585938 -5.519531 0.671875 -5.78125 C 0.765625 -6.050781 0.910156 -6.273438 1.109375 -6.453125 C 1.335938 -6.660156 1.617188 -6.820312 1.953125 -6.9375 C 2.296875 -7.050781 2.707031 -7.109375 3.1875 -7.109375 C 3.945312 -7.109375 4.5625 -6.960938 5.03125 -6.671875 C 5.5 -6.378906 5.78125 -5.941406 5.875 -5.359375 Z M 5.875 -5.359375 "/></g></g></g><g fill="#000000" fill-opacity="1"><g transform="translate(66.167166, 17.056453)"><g><path d="M 4.921875 -1.375 C 5.046875 -1.3125 5.128906 -1.222656 5.171875 -1.109375 C 5.210938 -0.992188 5.21875 -0.867188 5.1875 -0.734375 C 5.15625 -0.609375 5.097656 -0.476562 5.015625 -0.34375 C 4.941406 -0.21875 4.847656 -0.113281 4.734375 -0.03125 C 4.617188 0.0390625 4.492188 0.0820312 4.359375 0.09375 C 4.222656 0.101562 4.097656 0.0625 3.984375 -0.03125 C 3.554688 -0.351562 3.171875 -0.644531 2.828125 -0.90625 C 2.492188 -1.164062 2.191406 -1.421875 1.921875 -1.671875 C 1.941406 -1.492188 1.960938 -1.316406 1.984375 -1.140625 C 2.015625 -0.972656 2.050781 -0.800781 2.09375 -0.625 C 2.125 -0.476562 2.101562 -0.347656 2.03125 -0.234375 C 1.957031 -0.128906 1.859375 -0.0507812 1.734375 0 C 1.609375 0.0625 1.460938 0.09375 1.296875 0.09375 C 1.140625 0.101562 0.992188 0.0820312 0.859375 0.03125 C 0.734375 -0.0195312 0.625 -0.0976562 0.53125 -0.203125 C 0.445312 -0.304688 0.410156 -0.441406 0.421875 -0.609375 C 0.460938 -0.984375 0.488281 -1.414062 0.5 -1.90625 C 0.519531 -2.394531 0.535156 -2.90625 0.546875 -3.4375 C 0.554688 -3.96875 0.5625 -4.503906 0.5625 -5.046875 C 0.5625 -5.585938 0.5625 -6.097656 0.5625 -6.578125 C 0.5625 -6.722656 0.625 -6.832031 0.75 -6.90625 C 0.875 -6.976562 1.015625 -7.015625 1.171875 -7.015625 C 1.328125 -7.015625 1.46875 -6.976562 1.59375 -6.90625 C 1.726562 -6.832031 1.796875 -6.722656 1.796875 -6.578125 C 1.796875 -6.097656 1.789062 -5.632812 1.78125 -5.1875 C 1.78125 -4.738281 1.785156 -4.300781 1.796875 -3.875 L 3.859375 -5.28125 C 4.015625 -5.382812 4.171875 -5.414062 4.328125 -5.375 C 4.492188 -5.332031 4.625 -5.25 4.71875 -5.125 C 4.8125 -5 4.847656 -4.859375 4.828125 -4.703125 C 4.816406 -4.546875 4.722656 -4.40625 4.546875 -4.28125 L 2.421875 -2.90625 C 2.691406 -2.675781 3.046875 -2.425781 3.484375 -2.15625 C 3.921875 -1.882812 4.398438 -1.625 4.921875 -1.375 Z M 4.921875 -1.375 "/></g></g></g><g fill="#000000" fill-opacity="1"><g transform="translate(71.341926, 17.056453)"><g><path d="M 3.1875 0.078125 C 3.09375 0.328125 2.960938 0.523438 2.796875 0.671875 C 2.640625 0.828125 2.453125 0.929688 2.234375 0.984375 C 2.015625 1.035156 1.773438 1.054688 1.515625 1.046875 C 1.265625 1.035156 0.992188 0.988281 0.703125 0.90625 C 0.585938 0.882812 0.492188 0.820312 0.421875 0.71875 C 0.359375 0.625 0.3125 0.515625 0.28125 0.390625 C 0.257812 0.273438 0.257812 0.148438 0.28125 0.015625 C 0.300781 -0.109375 0.335938 -0.222656 0.390625 -0.328125 C 0.453125 -0.429688 0.53125 -0.507812 0.625 -0.5625 C 0.726562 -0.613281 0.847656 -0.617188 0.984375 -0.578125 C 1.140625 -0.535156 1.269531 -0.507812 1.375 -0.5 C 1.488281 -0.488281 1.578125 -0.488281 1.640625 -0.5 C 1.710938 -0.507812 1.769531 -0.535156 1.8125 -0.578125 C 1.863281 -0.628906 1.910156 -0.691406 1.953125 -0.765625 L 1.984375 -0.828125 L 0.125 -4.59375 C 0.0390625 -4.757812 0.0351562 -4.898438 0.109375 -5.015625 C 0.191406 -5.140625 0.304688 -5.226562 0.453125 -5.28125 C 0.609375 -5.34375 0.765625 -5.359375 0.921875 -5.328125 C 1.078125 -5.296875 1.191406 -5.210938 1.265625 -5.078125 L 2.703125 -2.234375 L 3.84375 -5.109375 C 3.894531 -5.242188 3.992188 -5.328125 4.140625 -5.359375 C 4.296875 -5.390625 4.445312 -5.382812 4.59375 -5.34375 C 4.738281 -5.300781 4.851562 -5.222656 4.9375 -5.109375 C 5.03125 -5.003906 5.050781 -4.875 5 -4.71875 Z M 3.1875 0.078125 "/></g></g></g><g fill="#000000" fill-opacity="1"><g transform="translate(76.401695, 17.056453)"><g/></g></g><g fill="#000000" fill-opacity="1"><g transform="translate(80.824567, 17.056453)"><g><path d="M 5.875 -5.359375 C 5.894531 -5.253906 5.878906 -5.160156 5.828125 -5.078125 C 5.773438 -5.003906 5.707031 -4.941406 5.625 -4.890625 C 5.539062 -4.835938 5.445312 -4.800781 5.34375 -4.78125 C 5.238281 -4.757812 5.132812 -4.753906 5.03125 -4.765625 C 4.925781 -4.785156 4.835938 -4.828125 4.765625 -4.890625 C 4.691406 -4.953125 4.640625 -5.035156 4.609375 -5.140625 C 4.554688 -5.398438 4.398438 -5.601562 4.140625 -5.75 C 3.890625 -5.894531 3.578125 -5.96875 3.203125 -5.96875 C 2.890625 -5.96875 2.640625 -5.9375 2.453125 -5.875 C 2.265625 -5.8125 2.125 -5.726562 2.03125 -5.625 C 1.894531 -5.488281 1.828125 -5.347656 1.828125 -5.203125 C 1.835938 -5.054688 1.960938 -4.925781 2.203125 -4.8125 C 2.296875 -4.757812 2.414062 -4.71875 2.5625 -4.6875 C 2.707031 -4.65625 2.867188 -4.617188 3.046875 -4.578125 C 3.222656 -4.546875 3.40625 -4.515625 3.59375 -4.484375 C 3.789062 -4.453125 3.988281 -4.414062 4.1875 -4.375 C 5 -4.195312 5.554688 -3.875 5.859375 -3.40625 C 5.972656 -3.238281 6.054688 -3.035156 6.109375 -2.796875 C 6.171875 -2.566406 6.195312 -2.328125 6.1875 -2.078125 C 6.1875 -1.828125 6.148438 -1.578125 6.078125 -1.328125 C 6.003906 -1.085938 5.890625 -0.875 5.734375 -0.6875 C 5.515625 -0.414062 5.195312 -0.195312 4.78125 -0.03125 C 4.363281 0.125 3.863281 0.203125 3.28125 0.203125 C 2.78125 0.203125 2.34375 0.140625 1.96875 0.015625 C 1.59375 -0.109375 1.28125 -0.289062 1.03125 -0.53125 C 0.789062 -0.769531 0.609375 -1.054688 0.484375 -1.390625 C 0.359375 -1.722656 0.296875 -2.097656 0.296875 -2.515625 C 0.296875 -2.710938 0.351562 -2.863281 0.46875 -2.96875 C 0.582031 -3.070312 0.707031 -3.128906 0.84375 -3.140625 C 0.988281 -3.160156 1.125 -3.132812 1.25 -3.0625 C 1.382812 -2.988281 1.46875 -2.875 1.5 -2.71875 C 1.570312 -2.320312 1.765625 -2.023438 2.078125 -1.828125 C 2.390625 -1.628906 2.789062 -1.53125 3.28125 -1.53125 C 3.632812 -1.53125 3.910156 -1.566406 4.109375 -1.640625 C 4.304688 -1.710938 4.460938 -1.8125 4.578125 -1.9375 C 4.679688 -2.039062 4.734375 -2.171875 4.734375 -2.328125 C 4.742188 -2.484375 4.710938 -2.613281 4.640625 -2.71875 C 4.554688 -2.820312 4.460938 -2.914062 4.359375 -3 C 4.253906 -3.082031 4.082031 -3.148438 3.84375 -3.203125 C 3.675781 -3.234375 3.5 -3.265625 3.3125 -3.296875 C 3.125 -3.328125 2.9375 -3.359375 2.75 -3.390625 C 2.5625 -3.429688 2.367188 -3.472656 2.171875 -3.515625 C 1.984375 -3.566406 1.804688 -3.625 1.640625 -3.6875 C 1.316406 -3.8125 1.066406 -3.988281 0.890625 -4.21875 C 0.722656 -4.457031 0.625 -4.710938 0.59375 -4.984375 C 0.5625 -5.253906 0.585938 -5.519531 0.671875 -5.78125 C 0.765625 -6.050781 0.910156 -6.273438 1.109375 -6.453125 C 1.335938 -6.660156 1.617188 -6.820312 1.953125 -6.9375 C 2.296875 -7.050781 2.707031 -7.109375 3.1875 -7.109375 C 3.945312 -7.109375 4.5625 -6.960938 5.03125 -6.671875 C 5.5 -6.378906 5.78125 -5.941406 5.875 -5.359375 Z M 5.875 -5.359375 "/></g></g></g><g fill="#000000" fill-opacity="1"><g transform="translate(87.264272, 17.056453)"><g><path d="M 5.453125 -1.578125 C 5.285156 -1.003906 4.988281 -0.570312 4.5625 -0.28125 C 4.144531 0.0078125 3.632812 0.15625 3.03125 0.15625 C 2.632812 0.15625 2.273438 0.0859375 1.953125 -0.046875 C 1.628906 -0.191406 1.347656 -0.390625 1.109375 -0.640625 C 0.878906 -0.890625 0.703125 -1.1875 0.578125 -1.53125 C 0.453125 -1.875 0.390625 -2.242188 0.390625 -2.640625 C 0.390625 -3.046875 0.453125 -3.414062 0.578125 -3.75 C 0.703125 -4.09375 0.878906 -4.390625 1.109375 -4.640625 C 1.347656 -4.890625 1.628906 -5.085938 1.953125 -5.234375 C 2.273438 -5.378906 2.632812 -5.453125 3.03125 -5.453125 C 3.550781 -5.453125 3.992188 -5.34375 4.359375 -5.125 C 4.722656 -4.90625 5.019531 -4.617188 5.25 -4.265625 C 5.3125 -4.148438 5.335938 -4.039062 5.328125 -3.9375 C 5.328125 -3.832031 5.296875 -3.738281 5.234375 -3.65625 C 5.171875 -3.582031 5.09375 -3.519531 5 -3.46875 C 4.914062 -3.414062 4.820312 -3.378906 4.71875 -3.359375 C 4.625 -3.347656 4.53125 -3.359375 4.4375 -3.390625 C 4.351562 -3.429688 4.28125 -3.5 4.21875 -3.59375 C 4.101562 -3.8125 3.941406 -3.984375 3.734375 -4.109375 C 3.535156 -4.242188 3.300781 -4.3125 3.03125 -4.3125 C 2.820312 -4.3125 2.628906 -4.269531 2.453125 -4.1875 C 2.273438 -4.101562 2.125 -3.992188 2 -3.859375 C 1.875 -3.734375 1.78125 -3.582031 1.71875 -3.40625 C 1.65625 -3.238281 1.625 -3.070312 1.625 -2.90625 C 1.625 -2.695312 1.65625 -2.503906 1.71875 -2.328125 C 1.789062 -2.160156 1.890625 -2.015625 2.015625 -1.890625 C 2.140625 -1.765625 2.289062 -1.664062 2.46875 -1.59375 C 2.644531 -1.519531 2.832031 -1.484375 3.03125 -1.484375 C 3.40625 -1.484375 3.695312 -1.535156 3.90625 -1.640625 C 4.113281 -1.742188 4.265625 -1.890625 4.359375 -2.078125 C 4.421875 -2.210938 4.519531 -2.296875 4.65625 -2.328125 C 4.800781 -2.367188 4.941406 -2.363281 5.078125 -2.3125 C 5.210938 -2.257812 5.320312 -2.171875 5.40625 -2.046875 C 5.488281 -1.921875 5.503906 -1.765625 5.453125 -1.578125 Z M 5.453125 -1.578125 "/></g></g></g><g fill="#000000" fill-opacity="1"><g transform="translate(93.014009, 17.056453)"><g><path d="M 5.796875 -2.640625 C 5.796875 -2.242188 5.726562 -1.875 5.59375 -1.53125 C 5.457031 -1.1875 5.269531 -0.882812 5.03125 -0.625 C 4.789062 -0.375 4.503906 -0.175781 4.171875 -0.03125 C 3.835938 0.113281 3.472656 0.1875 3.078125 0.1875 C 2.679688 0.1875 2.316406 0.113281 1.984375 -0.03125 C 1.648438 -0.175781 1.359375 -0.375 1.109375 -0.625 C 0.867188 -0.882812 0.679688 -1.1875 0.546875 -1.53125 C 0.421875 -1.875 0.359375 -2.242188 0.359375 -2.640625 C 0.359375 -3.046875 0.421875 -3.414062 0.546875 -3.75 C 0.679688 -4.09375 0.867188 -4.394531 1.109375 -4.65625 C 1.359375 -4.914062 1.648438 -5.113281 1.984375 -5.25 C 2.316406 -5.394531 2.679688 -5.46875 3.078125 -5.46875 C 3.472656 -5.46875 3.835938 -5.394531 4.171875 -5.25 C 4.503906 -5.113281 4.789062 -4.914062 5.03125 -4.65625 C 5.269531 -4.394531 5.457031 -4.09375 5.59375 -3.75 C 5.726562 -3.414062 5.796875 -3.046875 5.796875 -2.640625 Z M 4.515625 -2.875 C 4.515625 -3.082031 4.476562 -3.269531 4.40625 -3.4375 C 4.34375 -3.613281 4.25 -3.769531 4.125 -3.90625 C 4 -4.039062 3.847656 -4.144531 3.671875 -4.21875 C 3.492188 -4.289062 3.296875 -4.328125 3.078125 -4.328125 C 2.859375 -4.328125 2.660156 -4.289062 2.484375 -4.21875 C 2.304688 -4.144531 2.148438 -4.039062 2.015625 -3.90625 C 1.890625 -3.769531 1.789062 -3.613281 1.71875 -3.4375 C 1.65625 -3.269531 1.625 -3.082031 1.625 -2.875 C 1.625 -2.46875 1.75 -2.132812 2 -1.875 C 2.257812 -1.613281 2.617188 -1.484375 3.078125 -1.484375 C 3.523438 -1.484375 3.875 -1.613281 4.125 -1.875 C 4.382812 -2.132812 4.515625 -2.46875 4.515625 -2.875 Z M 4.515625 -2.875 "/></g></g></g><g fill="#000000" fill-opacity="1"><g transform="translate(99.144114, 17.056453)"><g><path d="M 5.4375 -0.625 C 5.476562 -0.4375 5.429688 -0.28125 5.296875 -0.15625 C 5.160156 -0.03125 5 0.046875 4.8125 0.078125 C 4.632812 0.117188 4.460938 0.113281 4.296875 0.0625 C 4.128906 0.0078125 4.03125 -0.09375 4 -0.25 C 3.988281 -0.289062 3.984375 -0.335938 3.984375 -0.390625 L 3.984375 -0.453125 C 3.847656 -0.265625 3.660156 -0.113281 3.421875 0 C 3.191406 0.101562 2.925781 0.15625 2.625 0.15625 C 2.257812 0.15625 1.945312 0.113281 1.6875 0.03125 C 1.425781 -0.0390625 1.207031 -0.160156 1.03125 -0.328125 C 0.863281 -0.492188 0.742188 -0.707031 0.671875 -0.96875 C 0.597656 -1.238281 0.5625 -1.5625 0.5625 -1.9375 L 0.5625 -4.96875 C 0.5625 -5.113281 0.625 -5.21875 0.75 -5.28125 C 0.875 -5.351562 1.015625 -5.390625 1.171875 -5.390625 C 1.328125 -5.390625 1.46875 -5.351562 1.59375 -5.28125 C 1.726562 -5.21875 1.796875 -5.113281 1.796875 -4.96875 L 1.796875 -2.46875 C 1.796875 -1.8125 2.101562 -1.484375 2.71875 -1.484375 C 3.101562 -1.484375 3.398438 -1.582031 3.609375 -1.78125 C 3.816406 -1.976562 3.921875 -2.265625 3.921875 -2.640625 L 3.921875 -4.96875 C 3.921875 -5.113281 3.984375 -5.21875 4.109375 -5.28125 C 4.234375 -5.351562 4.375 -5.390625 4.53125 -5.390625 C 4.6875 -5.390625 4.828125 -5.351562 4.953125 -5.28125 C 5.078125 -5.207031 5.140625 -5.09375 5.140625 -4.9375 C 5.140625 -4.050781 5.15625 -3.25 5.1875 -2.53125 C 5.226562 -1.8125 5.3125 -1.175781 5.4375 -0.625 Z M 5.4375 -0.625 "/></g></g></g><g fill="#000000" fill-opacity="1"><g transform="translate(104.982306, 17.056453)"><g><path d="M 2.875 -0.125 C 2.601562 0.0078125 2.335938 0.0859375 2.078125 0.109375 C 1.828125 0.128906 1.601562 0.0976562 1.40625 0.015625 C 1.207031 -0.0664062 1.046875 -0.191406 0.921875 -0.359375 C 0.804688 -0.535156 0.75 -0.75 0.75 -1 L 0.75 -4.21875 L 0.484375 -4.21875 C 0.328125 -4.21875 0.210938 -4.273438 0.140625 -4.390625 C 0.0664062 -4.503906 0.03125 -4.625 0.03125 -4.75 C 0.03125 -4.894531 0.0664062 -5.019531 0.140625 -5.125 C 0.210938 -5.226562 0.328125 -5.28125 0.484375 -5.28125 L 0.75 -5.28125 L 0.75 -6.390625 C 0.75 -6.535156 0.8125 -6.640625 0.9375 -6.703125 C 1.0625 -6.773438 1.203125 -6.8125 1.359375 -6.8125 C 1.515625 -6.8125 1.65625 -6.773438 1.78125 -6.703125 C 1.90625 -6.640625 1.96875 -6.535156 1.96875 -6.390625 L 1.96875 -5.28125 L 2.5625 -5.28125 C 2.726562 -5.28125 2.851562 -5.226562 2.9375 -5.125 C 3.019531 -5.019531 3.0625 -4.894531 3.0625 -4.75 C 3.0625 -4.625 3.019531 -4.503906 2.9375 -4.390625 C 2.851562 -4.273438 2.726562 -4.21875 2.5625 -4.21875 L 1.96875 -4.21875 L 1.96875 -1.875 C 1.96875 -1.75 2.007812 -1.664062 2.09375 -1.625 C 2.1875 -1.59375 2.332031 -1.609375 2.53125 -1.671875 C 2.644531 -1.710938 2.75 -1.707031 2.84375 -1.65625 C 2.9375 -1.601562 3.007812 -1.523438 3.0625 -1.421875 C 3.125 -1.328125 3.171875 -1.210938 3.203125 -1.078125 C 3.234375 -0.953125 3.238281 -0.828125 3.21875 -0.703125 C 3.207031 -0.578125 3.171875 -0.460938 3.109375 -0.359375 C 3.054688 -0.253906 2.976562 -0.175781 2.875 -0.125 Z M 2.875 -0.125 "/></g></g></g><g fill="#000000" fill-opacity="1"><g transform="translate(69.272898, 23.665151)"><g><path d="M 0.59375 -1.640625 C 0.582031 -1.640625 0.578125 -1.632812 0.578125 -1.625 C 0.578125 -1.539062 0.582031 -1.421875 0.59375 -1.265625 L 1.375 -1.265625 C 1.425781 -1.265625 1.460938 -1.242188 1.484375 -1.203125 C 1.515625 -1.171875 1.53125 -1.132812 1.53125 -1.09375 C 1.53125 -1.050781 1.515625 -1.007812 1.484375 -0.96875 C 1.460938 -0.9375 1.425781 -0.921875 1.375 -0.921875 L 0.640625 -0.921875 C 0.640625 -0.804688 0.644531 -0.679688 0.65625 -0.546875 C 0.664062 -0.421875 0.679688 -0.296875 0.703125 -0.171875 C 0.703125 -0.128906 0.691406 -0.09375 0.671875 -0.0625 C 0.648438 -0.03125 0.617188 -0.0078125 0.578125 0 C 0.535156 0.0195312 0.488281 0.03125 0.4375 0.03125 C 0.394531 0.03125 0.351562 0.0234375 0.3125 0.015625 C 0.28125 0.00390625 0.25 -0.015625 0.21875 -0.046875 C 0.195312 -0.078125 0.1875 -0.113281 0.1875 -0.15625 C 0.195312 -0.300781 0.203125 -0.445312 0.203125 -0.59375 C 0.203125 -0.738281 0.203125 -0.878906 0.203125 -1.015625 C 0.210938 -1.148438 0.21875 -1.273438 0.21875 -1.390625 C 0.21875 -1.515625 0.21875 -1.628906 0.21875 -1.734375 C 0.21875 -1.804688 0.238281 -1.863281 0.28125 -1.90625 C 0.332031 -1.945312 0.398438 -1.96875 0.484375 -1.96875 L 1.421875 -1.96875 C 1.472656 -1.96875 1.507812 -1.953125 1.53125 -1.921875 C 1.5625 -1.890625 1.578125 -1.851562 1.578125 -1.8125 C 1.578125 -1.757812 1.5625 -1.71875 1.53125 -1.6875 C 1.507812 -1.65625 1.472656 -1.640625 1.421875 -1.640625 Z M 0.59375 -1.640625 "/></g></g></g><g fill="#000000" fill-opacity="1"><g transform="translate(71.379367, 23.665151)"><g><path d="M 1.40625 -0.484375 C 1.4375 -0.484375 1.460938 -0.472656 1.484375 -0.453125 C 1.515625 -0.429688 1.535156 -0.398438 1.546875 -0.359375 C 1.554688 -0.328125 1.5625 -0.289062 1.5625 -0.25 C 1.5625 -0.207031 1.550781 -0.164062 1.53125 -0.125 C 1.519531 -0.09375 1.503906 -0.0625 1.484375 -0.03125 C 1.460938 -0.0078125 1.429688 0 1.390625 0 L 0.46875 0 C 0.28125 0 0.1875 -0.0859375 0.1875 -0.265625 L 0.1875 -1.875 C 0.1875 -1.914062 0.207031 -1.945312 0.25 -1.96875 C 0.289062 -1.988281 0.332031 -2 0.375 -2 C 0.425781 -2 0.46875 -1.988281 0.5 -1.96875 C 0.539062 -1.945312 0.5625 -1.914062 0.5625 -1.875 L 0.5625 -0.546875 C 0.5625 -0.503906 0.582031 -0.484375 0.625 -0.484375 Z M 1.40625 -0.484375 "/></g></g></g><g fill="#000000" fill-opacity="1"><g transform="translate(73.394799, 23.665151)"><g><path d="M 0.671875 -0.1875 C 0.671875 -0.132812 0.65625 -0.09375 0.625 -0.0625 C 0.601562 -0.03125 0.570312 -0.0078125 0.53125 0 C 0.5 0.0195312 0.457031 0.03125 0.40625 0.03125 C 0.351562 0.03125 0.304688 0.0195312 0.265625 0 C 0.234375 -0.0078125 0.203125 -0.03125 0.171875 -0.0625 C 0.148438 -0.09375 0.140625 -0.132812 0.140625 -0.1875 C 0.160156 -0.375 0.175781 -0.546875 0.1875 -0.703125 C 0.195312 -0.867188 0.203125 -1.019531 0.203125 -1.15625 C 0.210938 -1.300781 0.21875 -1.4375 0.21875 -1.5625 C 0.21875 -1.675781 0.21875 -1.78125 0.21875 -1.875 C 0.21875 -1.90625 0.226562 -1.925781 0.25 -1.9375 C 0.269531 -1.957031 0.289062 -1.972656 0.3125 -1.984375 C 0.34375 -1.992188 0.375 -2 0.40625 -2 C 0.4375 -2 0.460938 -1.992188 0.484375 -1.984375 C 0.515625 -1.972656 0.539062 -1.957031 0.5625 -1.9375 C 0.582031 -1.925781 0.59375 -1.90625 0.59375 -1.875 C 0.59375 -1.6875 0.59375 -1.453125 0.59375 -1.171875 C 0.601562 -0.890625 0.628906 -0.5625 0.671875 -0.1875 Z M 0.671875 -0.1875 "/></g></g></g><g fill="#000000" fill-opacity="1"><g transform="translate(74.681944, 23.665151)"><g><path d="M 2.015625 -0.8125 C 2.015625 -0.695312 1.992188 -0.585938 1.953125 -0.484375 C 1.921875 -0.378906 1.867188 -0.285156 1.796875 -0.203125 C 1.722656 -0.128906 1.628906 -0.0664062 1.515625 -0.015625 C 1.398438 0.0351562 1.257812 0.0625 1.09375 0.0625 C 0.945312 0.0625 0.8125 0.0351562 0.6875 -0.015625 C 0.570312 -0.0664062 0.46875 -0.140625 0.375 -0.234375 C 0.289062 -0.328125 0.222656 -0.4375 0.171875 -0.5625 C 0.128906 -0.695312 0.109375 -0.84375 0.109375 -1 C 0.109375 -1.144531 0.128906 -1.28125 0.171875 -1.40625 C 0.222656 -1.53125 0.289062 -1.640625 0.375 -1.734375 C 0.46875 -1.828125 0.570312 -1.898438 0.6875 -1.953125 C 0.8125 -2.003906 0.945312 -2.03125 1.09375 -2.03125 C 1.175781 -2.03125 1.257812 -2.019531 1.34375 -2 C 1.4375 -1.976562 1.519531 -1.941406 1.59375 -1.890625 C 1.664062 -1.847656 1.734375 -1.796875 1.796875 -1.734375 C 1.859375 -1.679688 1.90625 -1.613281 1.9375 -1.53125 C 1.945312 -1.5 1.945312 -1.46875 1.9375 -1.4375 C 1.9375 -1.414062 1.925781 -1.394531 1.90625 -1.375 C 1.894531 -1.351562 1.875 -1.332031 1.84375 -1.3125 C 1.8125 -1.300781 1.78125 -1.296875 1.75 -1.296875 C 1.726562 -1.296875 1.703125 -1.300781 1.671875 -1.3125 C 1.640625 -1.332031 1.617188 -1.351562 1.609375 -1.375 C 1.554688 -1.476562 1.484375 -1.554688 1.390625 -1.609375 C 1.296875 -1.660156 1.195312 -1.6875 1.09375 -1.6875 C 1.007812 -1.6875 0.929688 -1.671875 0.859375 -1.640625 C 0.785156 -1.609375 0.71875 -1.5625 0.65625 -1.5 C 0.601562 -1.445312 0.5625 -1.382812 0.53125 -1.3125 C 0.5 -1.238281 0.484375 -1.160156 0.484375 -1.078125 C 0.484375 -0.984375 0.492188 -0.894531 0.515625 -0.8125 C 0.546875 -0.726562 0.585938 -0.65625 0.640625 -0.59375 C 0.691406 -0.539062 0.753906 -0.492188 0.828125 -0.453125 C 0.910156 -0.421875 1 -0.40625 1.09375 -0.40625 C 1.257812 -0.40625 1.390625 -0.441406 1.484375 -0.515625 C 1.578125 -0.585938 1.628906 -0.6875 1.640625 -0.8125 C 1.640625 -0.820312 1.640625 -0.828125 1.640625 -0.828125 C 1.640625 -0.828125 1.632812 -0.828125 1.625 -0.828125 L 1.109375 -0.828125 C 1.046875 -0.828125 1 -0.84375 0.96875 -0.875 C 0.945312 -0.914062 0.9375 -0.957031 0.9375 -1 C 0.9375 -1.039062 0.945312 -1.078125 0.96875 -1.109375 C 1 -1.148438 1.046875 -1.171875 1.109375 -1.171875 L 1.703125 -1.171875 C 1.816406 -1.171875 1.894531 -1.140625 1.9375 -1.078125 C 1.988281 -1.015625 2.015625 -0.925781 2.015625 -0.8125 Z M 2.015625 -0.8125 "/></g></g></g><g fill="#000000" fill-opacity="1"><g transform="translate(77.284054, 23.665151)"><g><path d="M 1.9375 -0.1875 C 1.9375 -0.132812 1.921875 -0.09375 1.890625 -0.0625 C 1.867188 -0.03125 1.835938 -0.0078125 1.796875 0 C 1.753906 0.0195312 1.710938 0.03125 1.671875 0.03125 C 1.617188 0.03125 1.570312 0.0195312 1.53125 0 C 1.488281 -0.0078125 1.453125 -0.03125 1.421875 -0.0625 C 1.398438 -0.09375 1.394531 -0.132812 1.40625 -0.1875 C 1.414062 -0.34375 1.425781 -0.476562 1.4375 -0.59375 C 1.445312 -0.71875 1.453125 -0.832031 1.453125 -0.9375 L 0.625 -0.9375 C 0.625 -0.832031 0.628906 -0.71875 0.640625 -0.59375 C 0.648438 -0.476562 0.664062 -0.34375 0.6875 -0.1875 C 0.6875 -0.132812 0.671875 -0.09375 0.640625 -0.0625 C 0.617188 -0.03125 0.585938 -0.0078125 0.546875 0 C 0.503906 0.0195312 0.460938 0.03125 0.421875 0.03125 C 0.367188 0.03125 0.320312 0.0195312 0.28125 0 C 0.238281 -0.0078125 0.203125 -0.03125 0.171875 -0.0625 C 0.148438 -0.09375 0.140625 -0.132812 0.140625 -0.1875 C 0.160156 -0.363281 0.175781 -0.523438 0.1875 -0.671875 C 0.195312 -0.816406 0.207031 -0.953125 0.21875 -1.078125 C 0.226562 -1.210938 0.234375 -1.34375 0.234375 -1.46875 C 0.242188 -1.59375 0.25 -1.726562 0.25 -1.875 C 0.25 -1.914062 0.265625 -1.945312 0.296875 -1.96875 C 0.335938 -1.988281 0.378906 -2 0.421875 -2 C 0.472656 -2 0.515625 -1.988281 0.546875 -1.96875 C 0.585938 -1.945312 0.609375 -1.914062 0.609375 -1.875 C 0.609375 -1.769531 0.609375 -1.664062 0.609375 -1.5625 C 0.609375 -1.46875 0.609375 -1.375 0.609375 -1.28125 L 1.46875 -1.28125 C 1.46875 -1.375 1.46875 -1.46875 1.46875 -1.5625 C 1.46875 -1.65625 1.46875 -1.757812 1.46875 -1.875 C 1.46875 -1.914062 1.488281 -1.945312 1.53125 -1.96875 C 1.570312 -1.988281 1.613281 -2 1.65625 -2 C 1.695312 -2 1.738281 -1.988281 1.78125 -1.96875 C 1.820312 -1.945312 1.84375 -1.914062 1.84375 -1.875 C 1.84375 -1.726562 1.84375 -1.59375 1.84375 -1.46875 C 1.851562 -1.34375 1.859375 -1.210938 1.859375 -1.078125 C 1.867188 -0.953125 1.878906 -0.816406 1.890625 -0.671875 C 1.898438 -0.535156 1.914062 -0.375 1.9375 -0.1875 Z M 1.9375 -0.1875 "/></g></g></g><g fill="#000000" fill-opacity="1"><g transform="translate(79.843173, 23.665151)"><g><path d="M 1 -1.625 C 1 -1.507812 1 -1.398438 1 -1.296875 C 1 -1.203125 1.003906 -1.097656 1.015625 -0.984375 C 1.023438 -0.878906 1.035156 -0.757812 1.046875 -0.625 C 1.054688 -0.5 1.070312 -0.351562 1.09375 -0.1875 C 1.09375 -0.132812 1.078125 -0.09375 1.046875 -0.0625 C 1.023438 -0.03125 0.992188 -0.0078125 0.953125 0 C 0.910156 0.0195312 0.863281 0.03125 0.8125 0.03125 C 0.757812 0.03125 0.710938 0.0195312 0.671875 0 C 0.628906 -0.0078125 0.59375 -0.03125 0.5625 -0.0625 C 0.539062 -0.09375 0.53125 -0.132812 0.53125 -0.1875 C 0.550781 -0.351562 0.566406 -0.5 0.578125 -0.625 C 0.585938 -0.757812 0.59375 -0.878906 0.59375 -0.984375 C 0.601562 -1.097656 0.609375 -1.203125 0.609375 -1.296875 C 0.617188 -1.398438 0.625 -1.507812 0.625 -1.625 L 0.140625 -1.625 C 0.109375 -1.625 0.0820312 -1.632812 0.0625 -1.65625 C 0.0390625 -1.675781 0.0234375 -1.695312 0.015625 -1.71875 C 0.00390625 -1.738281 0 -1.765625 0 -1.796875 C 0 -1.828125 0.00390625 -1.851562 0.015625 -1.875 C 0.0234375 -1.90625 0.0390625 -1.925781 0.0625 -1.9375 C 0.0820312 -1.957031 0.109375 -1.96875 0.140625 -1.96875 L 1.46875 -1.96875 C 1.5 -1.96875 1.523438 -1.957031 1.546875 -1.9375 C 1.566406 -1.925781 1.582031 -1.90625 1.59375 -1.875 C 1.601562 -1.851562 1.609375 -1.828125 1.609375 -1.796875 C 1.609375 -1.765625 1.601562 -1.738281 1.59375 -1.71875 C 1.582031 -1.695312 1.566406 -1.675781 1.546875 -1.65625 C 1.523438 -1.632812 1.5 -1.625 1.46875 -1.625 Z M 1 -1.625 "/></g></g></g><g fill="#000000" fill-opacity="1"><g transform="translate(81.934468, 23.665151)"><g/></g></g><g fill="#000000" fill-opacity="1"><g transform="translate(83.676793, 23.665151)"><g><path d="M 0.59375 -1.640625 C 0.582031 -1.640625 0.578125 -1.632812 0.578125 -1.625 C 0.578125 -1.539062 0.582031 -1.421875 0.59375 -1.265625 L 1.375 -1.265625 C 1.425781 -1.265625 1.460938 -1.242188 1.484375 -1.203125 C 1.515625 -1.171875 1.53125 -1.132812 1.53125 -1.09375 C 1.53125 -1.050781 1.515625 -1.007812 1.484375 -0.96875 C 1.460938 -0.9375 1.425781 -0.921875 1.375 -0.921875 L 0.640625 -0.921875 C 0.640625 -0.804688 0.644531 -0.679688 0.65625 -0.546875 C 0.664062 -0.421875 0.679688 -0.296875 0.703125 -0.171875 C 0.703125 -0.128906 0.691406 -0.09375 0.671875 -0.0625 C 0.648438 -0.03125 0.617188 -0.0078125 0.578125 0 C 0.535156 0.0195312 0.488281 0.03125 0.4375 0.03125 C 0.394531 0.03125 0.351562 0.0234375 0.3125 0.015625 C 0.28125 0.00390625 0.25 -0.015625 0.21875 -0.046875 C 0.195312 -0.078125 0.1875 -0.113281 0.1875 -0.15625 C 0.195312 -0.300781 0.203125 -0.445312 0.203125 -0.59375 C 0.203125 -0.738281 0.203125 -0.878906 0.203125 -1.015625 C 0.210938 -1.148438 0.21875 -1.273438 0.21875 -1.390625 C 0.21875 -1.515625 0.21875 -1.628906 0.21875 -1.734375 C 0.21875 -1.804688 0.238281 -1.863281 0.28125 -1.90625 C 0.332031 -1.945312 0.398438 -1.96875 0.484375 -1.96875 L 1.421875 -1.96875 C 1.472656 -1.96875 1.507812 -1.953125 1.53125 -1.921875 C 1.5625 -1.890625 1.578125 -1.851562 1.578125 -1.8125 C 1.578125 -1.757812 1.5625 -1.71875 1.53125 -1.6875 C 1.507812 -1.65625 1.472656 -1.640625 1.421875 -1.640625 Z M 0.59375 -1.640625 "/></g></g></g><g fill="#000000" fill-opacity="1"><g transform="translate(85.783262, 23.665151)"><g><path d="M 0.671875 -0.1875 C 0.671875 -0.132812 0.65625 -0.09375 0.625 -0.0625 C 0.601562 -0.03125 0.570312 -0.0078125 0.53125 0 C 0.5 0.0195312 0.457031 0.03125 0.40625 0.03125 C 0.351562 0.03125 0.304688 0.0195312 0.265625 0 C 0.234375 -0.0078125 0.203125 -0.03125 0.171875 -0.0625 C 0.148438 -0.09375 0.140625 -0.132812 0.140625 -0.1875 C 0.160156 -0.375 0.175781 -0.546875 0.1875 -0.703125 C 0.195312 -0.867188 0.203125 -1.019531 0.203125 -1.15625 C 0.210938 -1.300781 0.21875 -1.4375 0.21875 -1.5625 C 0.21875 -1.675781 0.21875 -1.78125 0.21875 -1.875 C 0.21875 -1.90625 0.226562 -1.925781 0.25 -1.9375 C 0.269531 -1.957031 0.289062 -1.972656 0.3125 -1.984375 C 0.34375 -1.992188 0.375 -2 0.40625 -2 C 0.4375 -2 0.460938 -1.992188 0.484375 -1.984375 C 0.515625 -1.972656 0.539062 -1.957031 0.5625 -1.9375 C 0.582031 -1.925781 0.59375 -1.90625 0.59375 -1.875 C 0.59375 -1.6875 0.59375 -1.453125 0.59375 -1.171875 C 0.601562 -0.890625 0.628906 -0.5625 0.671875 -0.1875 Z M 0.671875 -0.1875 "/></g></g></g><g fill="#000000" fill-opacity="1"><g transform="translate(87.070406, 23.665151)"><g><path d="M 1.875 -0.203125 C 1.875 -0.160156 1.863281 -0.117188 1.84375 -0.078125 C 1.820312 -0.046875 1.789062 -0.0195312 1.75 0 C 1.71875 0.0078125 1.679688 0.015625 1.640625 0.015625 C 1.597656 0.0234375 1.554688 0.0234375 1.515625 0.015625 C 1.472656 0.015625 1.429688 0.00390625 1.390625 -0.015625 C 1.359375 -0.0351562 1.332031 -0.0625 1.3125 -0.09375 C 1.238281 -0.195312 1.164062 -0.304688 1.09375 -0.421875 C 1.019531 -0.546875 0.953125 -0.664062 0.890625 -0.78125 C 0.828125 -0.90625 0.769531 -1.019531 0.71875 -1.125 C 0.664062 -1.238281 0.617188 -1.335938 0.578125 -1.421875 L 0.578125 -1.359375 C 0.578125 -1.328125 0.578125 -1.273438 0.578125 -1.203125 C 0.585938 -1.140625 0.59375 -1.066406 0.59375 -0.984375 C 0.601562 -0.898438 0.609375 -0.8125 0.609375 -0.71875 C 0.617188 -0.632812 0.625 -0.546875 0.625 -0.453125 C 0.632812 -0.359375 0.644531 -0.273438 0.65625 -0.203125 C 0.664062 -0.148438 0.660156 -0.109375 0.640625 -0.078125 C 0.617188 -0.046875 0.585938 -0.0195312 0.546875 0 C 0.515625 0.0195312 0.472656 0.03125 0.421875 0.03125 C 0.378906 0.03125 0.335938 0.0195312 0.296875 0 C 0.265625 -0.0078125 0.238281 -0.03125 0.21875 -0.0625 C 0.195312 -0.101562 0.1875 -0.148438 0.1875 -0.203125 C 0.195312 -0.347656 0.203125 -0.476562 0.203125 -0.59375 C 0.203125 -0.71875 0.203125 -0.835938 0.203125 -0.953125 C 0.210938 -1.078125 0.21875 -1.207031 0.21875 -1.34375 C 0.21875 -1.476562 0.21875 -1.625 0.21875 -1.78125 C 0.21875 -1.84375 0.234375 -1.890625 0.265625 -1.921875 C 0.304688 -1.960938 0.351562 -1.988281 0.40625 -2 C 0.457031 -2.007812 0.507812 -2.003906 0.5625 -1.984375 C 0.613281 -1.972656 0.648438 -1.945312 0.671875 -1.90625 C 0.816406 -1.664062 0.953125 -1.445312 1.078125 -1.25 C 1.210938 -1.0625 1.347656 -0.882812 1.484375 -0.71875 L 1.484375 -1.875 C 1.484375 -1.914062 1.5 -1.945312 1.53125 -1.96875 C 1.570312 -1.988281 1.613281 -2 1.65625 -2 C 1.707031 -2 1.75 -1.988281 1.78125 -1.96875 C 1.820312 -1.945312 1.84375 -1.914062 1.84375 -1.875 C 1.84375 -1.707031 1.84375 -1.5625 1.84375 -1.4375 C 1.84375 -1.300781 1.84375 -1.164062 1.84375 -1.03125 C 1.84375 -0.90625 1.84375 -0.773438 1.84375 -0.640625 C 1.851562 -0.515625 1.863281 -0.367188 1.875 -0.203125 Z M 1.875 -0.203125 "/></g></g></g><g fill="#000000" fill-opacity="1"><g transform="translate(89.606765, 23.665151)"><g><path d="M 2 -0.984375 C 2 -0.835938 1.972656 -0.703125 1.921875 -0.578125 C 1.878906 -0.460938 1.8125 -0.359375 1.71875 -0.265625 C 1.632812 -0.179688 1.53125 -0.113281 1.40625 -0.0625 C 1.28125 -0.0195312 1.140625 0 0.984375 0 L 0.46875 0 C 0.28125 0 0.1875 -0.0859375 0.1875 -0.265625 L 0.1875 -1.71875 C 0.1875 -1.882812 0.28125 -1.96875 0.46875 -1.96875 L 0.953125 -1.96875 C 1.109375 -1.96875 1.25 -1.941406 1.375 -1.890625 C 1.507812 -1.847656 1.617188 -1.78125 1.703125 -1.6875 C 1.796875 -1.601562 1.867188 -1.5 1.921875 -1.375 C 1.972656 -1.257812 2 -1.128906 2 -0.984375 Z M 1.609375 -1.0625 C 1.609375 -1.144531 1.59375 -1.222656 1.5625 -1.296875 C 1.53125 -1.367188 1.484375 -1.425781 1.421875 -1.46875 C 1.367188 -1.519531 1.300781 -1.5625 1.21875 -1.59375 C 1.144531 -1.625 1.0625 -1.640625 0.96875 -1.640625 L 0.578125 -1.640625 C 0.566406 -1.640625 0.5625 -1.632812 0.5625 -1.625 L 0.5625 -0.515625 C 0.5625 -0.484375 0.570312 -0.46875 0.59375 -0.46875 L 0.984375 -0.46875 C 1.085938 -0.46875 1.175781 -0.484375 1.25 -0.515625 C 1.332031 -0.546875 1.398438 -0.585938 1.453125 -0.640625 C 1.503906 -0.691406 1.539062 -0.753906 1.5625 -0.828125 C 1.59375 -0.898438 1.609375 -0.976562 1.609375 -1.0625 Z M 1.609375 -1.0625 "/></g></g></g><g fill="#000000" fill-opacity="1"><g transform="translate(92.193701, 23.665151)"><g><path d="M 0.46875 0 C 0.28125 0 0.1875 -0.0859375 0.1875 -0.265625 L 0.1875 -1.71875 C 0.1875 -1.882812 0.28125 -1.96875 0.46875 -1.96875 L 1.53125 -1.96875 C 1.59375 -1.96875 1.632812 -1.953125 1.65625 -1.921875 C 1.6875 -1.890625 1.703125 -1.851562 1.703125 -1.8125 C 1.703125 -1.757812 1.6875 -1.71875 1.65625 -1.6875 C 1.632812 -1.65625 1.59375 -1.640625 1.53125 -1.640625 L 0.578125 -1.640625 C 0.566406 -1.640625 0.5625 -1.632812 0.5625 -1.625 L 0.5625 -1.265625 L 1.46875 -1.265625 C 1.519531 -1.265625 1.554688 -1.25 1.578125 -1.21875 C 1.609375 -1.1875 1.625 -1.148438 1.625 -1.109375 C 1.625 -1.066406 1.609375 -1.023438 1.578125 -0.984375 C 1.554688 -0.953125 1.519531 -0.9375 1.46875 -0.9375 L 0.5625 -0.9375 L 0.5625 -0.515625 C 0.5625 -0.503906 0.5625 -0.492188 0.5625 -0.484375 C 0.570312 -0.472656 0.582031 -0.46875 0.59375 -0.46875 L 1.546875 -0.46875 C 1.585938 -0.46875 1.617188 -0.457031 1.640625 -0.4375 C 1.660156 -0.414062 1.675781 -0.382812 1.6875 -0.34375 C 1.707031 -0.3125 1.71875 -0.273438 1.71875 -0.234375 C 1.71875 -0.191406 1.707031 -0.15625 1.6875 -0.125 C 1.675781 -0.09375 1.660156 -0.0625 1.640625 -0.03125 C 1.617188 -0.0078125 1.585938 0 1.546875 0 Z M 0.46875 0 "/></g></g></g><g fill="#000000" fill-opacity="1"><g transform="translate(94.464539, 23.665151)"><g><path d="M 1.953125 -0.265625 C 1.972656 -0.234375 1.976562 -0.195312 1.96875 -0.15625 C 1.96875 -0.125 1.953125 -0.09375 1.921875 -0.0625 C 1.898438 -0.0390625 1.863281 -0.0195312 1.8125 0 C 1.769531 0.0078125 1.726562 0.015625 1.6875 0.015625 C 1.644531 0.0234375 1.601562 0.0195312 1.5625 0 C 1.53125 -0.0078125 1.503906 -0.0351562 1.484375 -0.078125 C 1.441406 -0.179688 1.398438 -0.28125 1.359375 -0.375 C 1.328125 -0.46875 1.300781 -0.566406 1.28125 -0.671875 C 1.269531 -0.722656 1.242188 -0.757812 1.203125 -0.78125 C 1.171875 -0.8125 1.132812 -0.828125 1.09375 -0.828125 L 0.640625 -0.828125 C 0.640625 -0.734375 0.640625 -0.632812 0.640625 -0.53125 C 0.648438 -0.425781 0.671875 -0.304688 0.703125 -0.171875 C 0.710938 -0.128906 0.703125 -0.09375 0.671875 -0.0625 C 0.648438 -0.0390625 0.617188 -0.0195312 0.578125 0 C 0.546875 0.0195312 0.503906 0.03125 0.453125 0.03125 C 0.410156 0.03125 0.367188 0.0234375 0.328125 0.015625 C 0.285156 0.00390625 0.25 -0.0078125 0.21875 -0.03125 C 0.195312 -0.0625 0.1875 -0.101562 0.1875 -0.15625 C 0.207031 -0.457031 0.21875 -0.738281 0.21875 -1 C 0.21875 -1.257812 0.21875 -1.503906 0.21875 -1.734375 C 0.21875 -1.804688 0.238281 -1.863281 0.28125 -1.90625 C 0.332031 -1.945312 0.398438 -1.96875 0.484375 -1.96875 L 1.1875 -1.96875 C 1.320312 -1.96875 1.429688 -1.953125 1.515625 -1.921875 C 1.609375 -1.898438 1.6875 -1.863281 1.75 -1.8125 C 1.8125 -1.769531 1.851562 -1.710938 1.875 -1.640625 C 1.90625 -1.578125 1.921875 -1.503906 1.921875 -1.421875 C 1.921875 -1.367188 1.914062 -1.316406 1.90625 -1.265625 C 1.894531 -1.210938 1.875 -1.164062 1.84375 -1.125 C 1.8125 -1.082031 1.773438 -1.039062 1.734375 -1 C 1.691406 -0.96875 1.640625 -0.941406 1.578125 -0.921875 C 1.597656 -0.910156 1.613281 -0.894531 1.625 -0.875 C 1.644531 -0.863281 1.660156 -0.847656 1.671875 -0.828125 C 1.679688 -0.816406 1.691406 -0.800781 1.703125 -0.78125 C 1.710938 -0.757812 1.71875 -0.738281 1.71875 -0.71875 C 1.738281 -0.675781 1.753906 -0.632812 1.765625 -0.59375 C 1.773438 -0.5625 1.789062 -0.523438 1.8125 -0.484375 C 1.832031 -0.453125 1.851562 -0.414062 1.875 -0.375 C 1.894531 -0.34375 1.921875 -0.304688 1.953125 -0.265625 Z M 1.5625 -1.421875 C 1.5625 -1.503906 1.53125 -1.5625 1.46875 -1.59375 C 1.40625 -1.625 1.316406 -1.640625 1.203125 -1.640625 L 0.59375 -1.640625 C 0.582031 -1.640625 0.578125 -1.632812 0.578125 -1.625 C 0.578125 -1.550781 0.578125 -1.476562 0.578125 -1.40625 C 0.585938 -1.34375 0.59375 -1.265625 0.59375 -1.171875 L 1.203125 -1.171875 C 1.328125 -1.171875 1.414062 -1.191406 1.46875 -1.234375 C 1.53125 -1.285156 1.5625 -1.347656 1.5625 -1.421875 Z M 1.5625 -1.421875 "/></g></g></g><g fill="#000000" fill-opacity="1"><g transform="translate(96.962969, 23.665151)"><g><path d="M 1.671875 -1.53125 C 1.679688 -1.5 1.675781 -1.472656 1.65625 -1.453125 C 1.644531 -1.429688 1.625 -1.410156 1.59375 -1.390625 C 1.570312 -1.378906 1.546875 -1.367188 1.515625 -1.359375 C 1.492188 -1.359375 1.46875 -1.359375 1.4375 -1.359375 C 1.40625 -1.367188 1.378906 -1.378906 1.359375 -1.390625 C 1.335938 -1.410156 1.320312 -1.4375 1.3125 -1.46875 C 1.300781 -1.539062 1.257812 -1.597656 1.1875 -1.640625 C 1.113281 -1.679688 1.023438 -1.703125 0.921875 -1.703125 C 0.828125 -1.703125 0.753906 -1.691406 0.703125 -1.671875 C 0.648438 -1.660156 0.609375 -1.640625 0.578125 -1.609375 C 0.546875 -1.566406 0.53125 -1.523438 0.53125 -1.484375 C 0.53125 -1.441406 0.5625 -1.40625 0.625 -1.375 C 0.65625 -1.363281 0.691406 -1.351562 0.734375 -1.34375 C 0.773438 -1.332031 0.820312 -1.320312 0.875 -1.3125 C 0.925781 -1.300781 0.976562 -1.289062 1.03125 -1.28125 C 1.082031 -1.269531 1.132812 -1.257812 1.1875 -1.25 C 1.425781 -1.195312 1.585938 -1.101562 1.671875 -0.96875 C 1.703125 -0.925781 1.722656 -0.867188 1.734375 -0.796875 C 1.753906 -0.734375 1.765625 -0.664062 1.765625 -0.59375 C 1.765625 -0.519531 1.753906 -0.445312 1.734375 -0.375 C 1.710938 -0.3125 1.679688 -0.25 1.640625 -0.1875 C 1.578125 -0.113281 1.484375 -0.0507812 1.359375 0 C 1.242188 0.0390625 1.101562 0.0625 0.9375 0.0625 C 0.789062 0.0625 0.664062 0.0390625 0.5625 0 C 0.457031 -0.03125 0.367188 -0.078125 0.296875 -0.140625 C 0.222656 -0.210938 0.164062 -0.296875 0.125 -0.390625 C 0.09375 -0.492188 0.078125 -0.601562 0.078125 -0.71875 C 0.078125 -0.769531 0.09375 -0.8125 0.125 -0.84375 C 0.164062 -0.875 0.203125 -0.890625 0.234375 -0.890625 C 0.273438 -0.898438 0.316406 -0.894531 0.359375 -0.875 C 0.398438 -0.851562 0.421875 -0.820312 0.421875 -0.78125 C 0.441406 -0.664062 0.5 -0.578125 0.59375 -0.515625 C 0.6875 -0.460938 0.800781 -0.4375 0.9375 -0.4375 C 1.039062 -0.4375 1.117188 -0.445312 1.171875 -0.46875 C 1.234375 -0.488281 1.28125 -0.515625 1.3125 -0.546875 C 1.34375 -0.578125 1.359375 -0.613281 1.359375 -0.65625 C 1.359375 -0.707031 1.347656 -0.75 1.328125 -0.78125 C 1.304688 -0.8125 1.28125 -0.835938 1.25 -0.859375 C 1.21875 -0.878906 1.164062 -0.894531 1.09375 -0.90625 C 1.050781 -0.914062 1.003906 -0.925781 0.953125 -0.9375 C 0.898438 -0.945312 0.84375 -0.957031 0.78125 -0.96875 C 0.726562 -0.976562 0.675781 -0.988281 0.625 -1 C 0.570312 -1.019531 0.519531 -1.035156 0.46875 -1.046875 C 0.375 -1.085938 0.300781 -1.140625 0.25 -1.203125 C 0.207031 -1.273438 0.179688 -1.347656 0.171875 -1.421875 C 0.160156 -1.492188 0.164062 -1.566406 0.1875 -1.640625 C 0.21875 -1.722656 0.257812 -1.789062 0.3125 -1.84375 C 0.382812 -1.90625 0.46875 -1.953125 0.5625 -1.984375 C 0.65625 -2.015625 0.769531 -2.03125 0.90625 -2.03125 C 1.125 -2.03125 1.300781 -1.988281 1.4375 -1.90625 C 1.570312 -1.820312 1.648438 -1.695312 1.671875 -1.53125 Z M 1.671875 -1.53125 "/></g></g></g></svg>